<?xml version="1.0" encoding="UTF-8" standalone="no"?> <svg xmlns="http://www.w3.org/2000/svg" viewBox="0 0 64 64"><g id="pomegranate"><path d="M38.87,16.15a7.24,7.24,0,0,1,4.45-5.23h0a.82.82,0,0,0,.2-.12,1,1,0,0,0,.13-.09.53.53,0,0,0,.11-.15.57.57,0,0,0,.11-.16.94.94,0,0,0,0-.16A1.42,1.42,0,0,0,44,10v0a.76.76,0,0,0,0-.16,1.13,1.13,0,0,0,0-.18s0,0,0,0a1.22,1.22,0,0,0-.12-.19,1.1,1.1,0,0,0-.09-.14l-.15-.1a1,1,0,0,0-.16-.12l-.16,0A2.07,2.07,0,0,0,43,9h0a12.65,12.65,0,0,0-7.24,2.23l-2.8-7.56A1,1,0,0,0,32,3h0a1,1,0,0,0-.94.65l-2.8,7.59A12.68,12.68,0,0,0,21,9h0a.64.64,0,0,0-.23,0l-.15,0a.91.91,0,0,0-.16.11c-.05,0-.11.07-.15.11a1,1,0,0,0-.09.13,2.12,2.12,0,0,0-.12.2s0,0,0,0a1,1,0,0,0,0,.17A1,1,0,0,0,20,10v0a.87.87,0,0,0,.05.22.9.9,0,0,0,0,.16,1.53,1.53,0,0,0,.11.16s.07.11.11.15a.67.67,0,0,0,.14.09.76.76,0,0,0,.19.12h0a7.24,7.24,0,0,1,4.46,5.24,23,23,0,1,0,13.78,0ZM32,59a21,21,0,0,1-5.54-41.18l.08,0a1.51,1.51,0,0,0,.18-.09l.15-.11a1.58,1.58,0,0,0,.12-.15.86.86,0,0,0,.1-.16c0-.06,0-.11.06-.18l0-.2s0-.06,0-.09a8.77,8.77,0,0,0-2.05-5A10.41,10.41,0,0,1,28,13.56a1.07,1.07,0,0,0,.39.26.87.87,0,0,0,.32.06.91.91,0,0,0,.4-.1l0,0a1,1,0,0,0,.29-.21l0,0s0,0,0,0a1.49,1.49,0,0,0,.18-.3v0h0L32,6.88l2.32,6.27h0v0s0,.07.05.1v0s.06.06.09.1,0,.06,0,.08l0,0a.83.83,0,0,0,.28.21l0,0a1,1,0,0,0,.71,0h0a.29.29,0,0,0,.1,0,1.24,1.24,0,0,0,.18-.14h0a9.71,9.71,0,0,1,2.88-1.78,8.78,8.78,0,0,0-2,5s0,.07,0,.1a.64.64,0,0,0,0,.2.64.64,0,0,0,.06.18.83.83,0,0,0,.09.16.86.86,0,0,0,.13.14.61.61,0,0,0,.15.12l.17.09.09,0A21,21,0,0,1,32,59Z"/><path d="M27.09,20.21A18.61,18.61,0,0,0,13.43,38.12a1,1,0,0,0,2,0,16.59,16.59,0,0,1,12.19-16,1,1,0,0,0,.7-1.23A1,1,0,0,0,27.09,20.21Z"/></g></svg>